<svg width="48" height="48" viewBox="0 0 48 48" fill="none" xmlns="http://www.w3.org/2000/svg">
<path d="M14.6667 8V12M33.3333 8V12M8 36V16C8 14.9391 8.42143 13.9217 9.17157 13.1716C9.92172 12.4214 10.9391 12 12 12H36C37.0609 12 38.0783 12.4214 38.8284 13.1716C39.5786 13.9217 40 14.9391 40 16V36M8 36C8 37.0609 8.42143 38.0783 9.17157 38.8284C9.92172 39.5786 10.9391 40 12 40H36C37.0609 40 38.0783 39.5786 38.8284 38.8284C39.5786 38.0783 40 37.0609 40 36M8 36V22.6667C8 21.6058 8.42143 20.5884 9.17157 19.8382C9.92172 19.0881 10.9391 18.6667 12 18.6667H36C37.0609 18.6667 38.0783 19.0881 38.8284 19.8382C39.5786 20.5884 40 21.6058 40 22.6667V36M24 25.3333H24.0142V25.3476H24V25.3333ZM24 29.3333H24.0142V29.3476H24V29.3333ZM24 33.3333H24.0142V33.3476H24V33.3333ZM20 29.3333H20.0142V29.3476H20V29.3333ZM20 33.3333H20.0142V33.3476H20V33.3333ZM16 29.3333H16.0142V29.3476H16V29.3333ZM16 33.3333H16.0142V33.3476H16V33.3333ZM28 25.3333H28.0142V25.3476H28V25.3333ZM28 29.3333H28.0142V29.3476H28V29.3333ZM28 33.3333H28.0142V33.3476H28V33.3333ZM32 25.3333H32.0142V25.3476H32V25.3333ZM32 29.3333H32.0142V29.3476H32V29.3333Z" stroke="white" stroke-width="1.5" stroke-linecap="round" stroke-linejoin="round"/>
</svg>
