<svg width="48" height="48" viewBox="0 0 48 48" fill="none" xmlns="http://www.w3.org/2000/svg">
<path d="M28.6731 18.8846H34.8269M28.6731 23.8077H34.8269M28.6731 28.7308H34.8269M11.4423 36.1154H36.0577C37.037 36.1154 37.9761 35.7264 38.6685 35.0339C39.361 34.3415 39.75 33.4023 39.75 32.4231V15.1923C39.75 14.213 39.361 13.2739 38.6685 12.5815C37.9761 11.889 37.037 11.5 36.0577 11.5H11.4423C10.463 11.5 9.52389 11.889 8.83145 12.5815C8.13901 13.2739 7.75 14.213 7.75 15.1923V32.4231C7.75 33.4023 8.13901 34.3415 8.83145 35.0339C9.52389 35.7264 10.463 36.1154 11.4423 36.1154ZM21.2885 19.5C21.2885 19.9041 21.2089 20.3042 21.0542 20.6775C20.8996 21.0508 20.673 21.39 20.3873 21.6757C20.1015 21.9614 19.7623 22.1881 19.389 22.3427C19.0157 22.4973 18.6156 22.5769 18.2115 22.5769C17.8075 22.5769 17.4074 22.4973 17.0341 22.3427C16.6607 22.1881 16.3215 21.9614 16.0358 21.6757C15.7501 21.39 15.5235 21.0508 15.3688 20.6775C15.2142 20.3042 15.1346 19.9041 15.1346 19.5C15.1346 18.6839 15.4588 17.9013 16.0358 17.3243C16.6129 16.7473 17.3955 16.4231 18.2115 16.4231C19.0276 16.4231 19.8102 16.7473 20.3873 17.3243C20.9643 17.9013 21.2885 18.6839 21.2885 19.5ZM23.4119 29.8975C21.8108 30.7504 20.024 31.1951 18.2099 31.1923C16.3969 31.1946 14.6113 30.7499 13.0111 29.8975C13.4022 28.8329 14.1105 27.914 15.0405 27.2648C15.9705 26.6156 17.0774 26.2675 18.2115 26.2675C19.3457 26.2675 20.4525 26.6156 21.3825 27.2648C22.3126 27.914 23.0209 28.8329 23.4119 29.8975Z" stroke="white" stroke-width="1.5" stroke-linecap="round" stroke-linejoin="round"/>
</svg>
