<svg width="109" height="30" viewBox="0 0 109 30" fill="none" xmlns="http://www.w3.org/2000/svg">
<path d="M55.4157 12.3467H57.6961V8.32799H59.3138V6.7037H53.798V8.32799H55.4157V12.3467Z" fill="white"/>
<path d="M60.995 12.3467L62.1574 8.97211L63.3179 12.3467H65.5487L63.3622 6.7037H60.9507L58.766 12.3467H60.995Z" fill="white"/>
<path d="M66.6189 12.3467H68.8993V8.32799H70.5171V6.7037H65.0012V8.32799H66.6189V12.3467Z" fill="white"/>
<path d="M72.1986 12.3467L73.361 8.97211L74.5216 12.3467H76.7523L74.5676 6.7037H72.1543L69.9696 12.3467H72.1986Z" fill="white"/>
<path d="M94.083 16.3812C94.3647 17.0201 94.7368 17.7114 95.1072 18.3275L96.5991 20.8095H97.6799V15.1665H96.7142V17.1356C96.7142 17.9985 96.7337 18.7249 96.8082 19.474L96.7887 19.4792C96.5247 18.8666 96.1933 18.2103 95.8159 17.5889L94.3399 15.1665H93.1475V20.8095H94.1114V18.7914C94.1114 17.8655 94.0972 17.1198 94.0564 16.3864L94.083 16.3812Z" fill="white"/>
<path d="M88.9038 19.2149H90.7182L91.2356 20.8095H92.3554L90.5003 15.1665H89.1731L87.3392 20.8095H88.4183L88.9038 19.2149ZM89.5151 17.0428C89.6161 16.7067 89.7029 16.3164 89.7862 15.9856H89.8039C89.8907 16.3129 89.9846 16.698 90.0927 17.0463L90.5428 18.4378H89.0704L89.5151 17.0428Z" fill="white"/>
<path d="M71.8973 20.0446C71.3658 20.0446 70.8537 19.8765 70.517 19.684L70.2849 20.5382C70.5968 20.7272 71.224 20.8987 71.8282 20.8987C73.3024 20.8987 73.9952 20.1111 73.9952 19.2027C73.9952 18.3923 73.5186 17.8987 72.5263 17.5259C71.7644 17.2388 71.4331 17.034 71.4331 16.6017C71.4331 16.2692 71.7148 15.9226 72.3775 15.9226C72.9144 15.9226 73.313 16.0836 73.5186 16.1904L73.7684 15.359C73.4707 15.2102 73.0171 15.0807 72.3988 15.0807C71.1602 15.0807 70.377 15.7773 70.377 16.7015C70.377 17.5101 70.9795 18.0107 71.9239 18.3415C72.645 18.6006 72.9356 18.8526 72.9356 19.2779C72.9356 19.7365 72.5618 20.0446 71.8973 20.0446Z" fill="white"/>
<path d="M56.9003 15.9296C57.3663 15.9296 57.7472 16.0311 58.013 16.1501L58.2398 15.3292C58.0272 15.2155 57.5435 15.0789 56.856 15.0789C55.1107 15.0789 53.7977 16.1991 53.7977 18.0545C53.7977 19.7715 54.9016 20.8987 56.7142 20.8987C57.4053 20.8987 57.9492 20.764 58.1955 20.6414L58.0236 19.8293C57.749 19.9518 57.3078 20.0341 56.8843 20.0341C55.6281 20.0341 54.8963 19.2464 54.8963 18.002C54.8963 16.6472 55.7344 15.9296 56.9003 15.9296Z" fill="white"/>
<path d="M86.067 20.8095V16.0329H87.7131V15.1665H83.3915V16.0329H85.0234V20.8095H86.067Z" fill="white"/>
<path d="M106.922 15.1665L106.234 16.6122C106.04 17.0218 105.882 17.3719 105.74 17.7324H105.722C105.566 17.3509 105.418 17.0288 105.224 16.614L104.544 15.1665H103.35L105.157 18.4606V20.8095H106.201V18.4326L108.098 15.1682H106.922V15.1665Z" fill="white"/>
<path d="M61.2644 15.0754C59.652 15.0754 58.5446 16.2989 58.5446 18.0317C58.5446 19.684 59.5652 20.904 61.1811 20.904H61.19C62.7545 20.904 63.9151 19.8223 63.9151 17.9319C63.9116 16.3182 62.9299 15.0754 61.2644 15.0754ZM61.2236 20.0778H61.2148C60.2172 20.0778 59.6343 19.1292 59.6378 18.0072C59.636 16.8818 60.1853 15.8998 61.2272 15.8998C62.269 15.8998 62.8041 16.9063 62.8041 17.9705C62.8024 19.1502 62.2318 20.0778 61.2236 20.0778Z" fill="white"/>
<path d="M101.681 15.9296C102.147 15.9296 102.528 16.0311 102.794 16.1501L103.02 15.3292C102.808 15.2155 102.324 15.0789 101.637 15.0789C99.8912 15.0789 98.5782 16.1991 98.5782 18.0545C98.5782 19.7715 99.6821 20.8987 101.495 20.8987C102.186 20.8987 102.73 20.7657 102.976 20.6414L102.804 19.8293C102.53 19.9518 102.088 20.0341 101.665 20.0341C100.409 20.0341 99.6768 19.2464 99.6768 18.002C99.6768 16.6472 100.515 15.9296 101.681 15.9296Z" fill="white"/>
<path d="M81.6214 15.1665H80.5778V20.8095H83.9709V19.9448H81.6214V15.1665Z" fill="white"/>
<path d="M79.3907 18.3905V15.1682H78.347V18.4588C78.347 19.565 77.8952 20.0743 77.1439 20.0743C76.4369 20.0743 75.9727 19.5615 75.9727 18.4588V15.1682H74.9291V18.3975C74.9291 20.1724 75.7884 20.9057 77.1049 20.9057C78.4852 20.904 79.3907 20.1286 79.3907 18.3905Z" fill="white"/>
<path d="M69.3387 15.1665H68.3731V17.1356C68.3731 17.9985 68.3925 18.7249 68.467 19.474L68.4475 19.4792C68.1835 18.8666 67.8521 18.2103 67.4747 17.5889L65.9987 15.1665H64.8063V20.8095H65.7719V18.7914C65.7719 17.8655 65.7578 17.1198 65.717 16.3882L65.7436 16.3829C66.0253 17.0218 66.3974 17.7132 66.7677 18.3293L68.2597 20.8112H69.3405V15.1665H69.3387Z" fill="white"/>
<path d="M73.8039 23.631H72.7603V29.274H73.8039V23.631Z" fill="white"/>
<path d="M65.586 26.6275V26.6048C66.1193 26.4175 66.6154 25.9274 66.6154 25.2063C66.6154 24.7267 66.4382 24.3381 66.1282 24.0826C65.7454 23.7675 65.0863 23.631 64.3793 23.631C63.6723 23.631 63.2046 23.68 62.8094 23.7518V29.274H63.8371V26.9723H64.3581C64.9463 26.9863 65.2157 27.2226 65.3787 27.9525C65.5364 28.6491 65.6728 29.1112 65.7596 29.274H66.8227C66.7093 29.0552 66.5552 28.4128 66.3762 27.7127C66.2345 27.1684 65.9971 26.7815 65.586 26.6275ZM64.4502 26.2214H63.8371V24.4519C63.9417 24.4256 64.1525 24.4011 64.4803 24.4011C65.1501 24.4029 65.5842 24.6882 65.5842 25.299C65.5842 25.8556 65.1519 26.2214 64.4502 26.2214Z" fill="white"/>
<path d="M70.2017 26.2109C69.9802 26.8953 69.7729 27.5849 69.6205 28.25H69.6028C69.454 27.5674 69.2591 26.9075 69.0429 26.1952L68.2633 23.6292H67.1257L68.9738 29.2722H70.1698L72.1437 23.6292H71.0327L70.2017 26.2109Z" fill="white"/>
<path d="M81.0243 26.7693H83.1772V25.9291H81.0243V24.4781H83.3048V23.631H79.9807V29.2722H83.4306V28.4251H81.0243V26.7693Z" fill="white"/>
<path d="M77.803 24.3923C78.269 24.3923 78.6499 24.4939 78.9157 24.6129L79.1425 23.792C78.9299 23.6782 78.4462 23.5417 77.7587 23.5417C76.0134 23.5417 74.7004 24.6619 74.7004 26.5172C74.7004 28.2343 75.8043 29.3615 77.6169 29.3615C78.308 29.3615 78.8519 29.2284 79.0982 29.1042L78.9264 28.292C78.6499 28.4146 78.2105 28.4968 77.787 28.4968C76.5308 28.4968 75.799 27.7092 75.799 26.4647C75.799 25.11 76.6371 24.3923 77.803 24.3923Z" fill="white"/>
<path d="M56.0391 25.9886C55.2754 25.7016 54.9458 25.4968 54.9458 25.0645C54.9458 24.7319 55.2276 24.3854 55.8885 24.3854C56.4254 24.3854 56.824 24.5464 57.0296 24.6532L57.2794 23.8218C56.9817 23.673 56.5281 23.5435 55.9097 23.5435C54.6712 23.5435 53.888 24.2401 53.888 25.1642C53.888 25.9729 54.4905 26.4735 55.4349 26.8043C56.156 27.0633 56.4466 27.3154 56.4466 27.7407C56.4466 28.2028 56.0745 28.5108 55.4083 28.5108C54.8767 28.5108 54.3647 28.3428 54.028 28.1503L53.7959 29.0044C54.1077 29.1935 54.735 29.365 55.3392 29.365C56.8134 29.365 57.5062 28.5774 57.5062 27.6689C57.508 26.855 57.0313 26.3615 56.0391 25.9886Z" fill="white"/>
<path d="M59.4889 26.7693H61.6418V25.9291H59.4889V24.4781H61.7711V23.631H58.4453V29.2722H61.8969V28.4251H59.4889V26.7693Z" fill="white"/>
<path d="M86.3363 25.9886C85.5744 25.7016 85.2431 25.4968 85.2431 25.0645C85.2431 24.7319 85.5248 24.3854 86.1857 24.3854C86.7226 24.3854 87.1213 24.5464 87.3268 24.6532L87.5767 23.8218C87.279 23.673 86.8254 23.5435 86.207 23.5435C84.9684 23.5435 84.1853 24.2401 84.1853 25.1642C84.1853 25.9729 84.7877 26.4735 85.7321 26.8043C86.4533 27.0633 86.7439 27.3154 86.7439 27.7407C86.7439 28.2028 86.3718 28.5108 85.7055 28.5108C85.174 28.5108 84.6619 28.3428 84.3253 28.1503L84.0931 29.0044C84.405 29.1935 85.0322 29.365 85.6364 29.365C87.1106 29.365 87.8034 28.5774 87.8034 27.6689C87.8052 26.855 87.3286 26.3615 86.3363 25.9886Z" fill="white"/>
<path d="M0 10.5631C0 8.00767 1.68151 6.4744 4.1391 6.4744V2.13013C4.1391 0.852401 3.2762 0 2.06955 0C0.862903 0 0 0.852401 0 2.13013V10.5631Z" fill="url(#paint0_linear_114_1254)"/>
<path d="M7.33025 29.4297C8.36502 29.4297 9.31297 29.2599 10.1759 28.9606C5.82061 29.6853 4.1391 26.7465 4.1391 23.4244V9.79649H9.18363C10.3477 9.79649 11.1238 9.11562 11.1238 8.13544C11.1238 7.15527 10.3477 6.4744 9.18363 6.4744H4.1391C1.68151 6.4744 0 8.00767 0 10.5631V22.2745C0 26.96 2.71628 29.4297 7.33025 29.4297Z" fill="url(#paint1_linear_114_1254)"/>
<path d="M10.1759 28.9607C11.9 28.3218 13.2377 27.1298 14.0989 25.383L12.1587 21.9332C11.2958 24.4886 9.7879 25.8521 7.71835 25.8521C5.56198 25.8521 4.13916 24.6164 4.13916 21.8054V23.4244C4.13916 26.7465 5.82067 29.6853 10.1759 28.9607Z" fill="url(#paint2_linear_114_1254)"/>
<path d="M27.8946 28.2798C18.0643 29.7273 14.96 24.5324 14.96 17.8462C14.96 12.9908 17.9775 9.66872 22.3327 9.66872C23.9274 9.66872 25.2652 10.01 26.4718 10.5631C27.0317 10.8187 27.5066 10.9044 27.9372 10.9044C28.9719 10.9044 29.6612 10.2236 29.6612 9.20139C29.6612 8.56253 29.2732 7.92366 28.3677 7.49834C26.7288 6.68969 24.6167 6.22061 22.331 6.22061C15.5181 6.22061 10.8191 10.9902 10.8191 17.9319C10.8191 24.7459 15.3462 29.4735 22.6322 29.4735C24.6185 29.4718 26.3425 29.0884 27.8946 28.2798Z" fill="url(#paint3_linear_114_1254)"/>
<path d="M10.8225 17.9302C10.8225 10.9884 15.5215 6.21884 22.3344 6.21884C24.6201 6.21884 26.7322 6.68793 28.3712 7.49657C29.2766 7.9219 29.6646 8.56076 29.6646 9.19962C29.6646 10.2218 28.9754 10.9027 27.9406 10.9027C27.51 10.9027 27.0352 10.8169 26.4753 10.5614C25.0099 9.88049 23.5871 9.66695 22.3362 9.66695C16.3401 9.6687 10.8225 13.4161 10.8225 17.9302Z" fill="url(#paint4_linear_114_1254)"/>
<path d="M36.5609 7.58234C36.1729 7.96565 35.9567 8.43474 35.9567 8.98784C35.9567 10.3933 37.2927 12.4797 40.397 14.6098L43.9319 17.0375C46.5188 18.8263 47.5536 20.5294 47.5536 23.0848C47.5536 24.9157 46.8201 26.4927 45.6134 27.5989C46.044 27.2156 46.3027 26.7045 46.3027 26.0236C46.3027 24.5324 44.793 22.1904 41.5594 19.9763L38.3257 17.7621C35.6094 15.8876 34.5321 14.1425 34.5321 11.7568C34.5321 10.3513 35.0495 9.0736 35.9124 8.13718C36.1303 7.9219 36.3447 7.75212 36.5609 7.58234Z" fill="url(#paint5_linear_114_1254)"/>
<path d="M33.7595 26.7045C33.7595 27.3854 34.105 27.9402 35.0105 28.3656C36.2614 28.9624 38.2867 29.4735 40.0975 29.4735C42.3832 29.4735 44.2791 28.7926 45.6169 27.5989C46.0475 27.2156 46.3062 26.7045 46.3062 26.0236C46.3062 24.5324 44.7965 22.1905 41.5629 19.9763C43.0282 20.9985 43.6324 21.8509 43.6324 23.0849C43.6324 24.9157 42.1671 26.1514 40.0532 26.1514C38.0262 26.1514 36.3022 25.1292 35.3542 25.1292C34.4063 25.1292 33.7595 25.7681 33.7595 26.7045Z" fill="url(#paint6_linear_114_1254)"/>
<path d="M40.3988 14.6099C39.0185 13.6297 38.416 12.7353 38.416 11.6711C38.416 10.3076 39.5376 9.45694 41.1323 9.45694C43.1593 9.45694 44.1073 10.3934 45.3139 10.3934C46.2619 10.3934 46.9086 9.75449 46.9086 8.81807C46.9086 8.1372 46.5631 7.58235 45.6577 7.15703C44.2349 6.47616 42.6827 6.22061 41.0012 6.22061C39.2329 6.22061 37.6807 6.7317 36.5609 7.5841C36.1728 7.96742 35.9567 8.43651 35.9567 8.9896C35.9567 10.3934 37.2944 12.4797 40.3988 14.6099Z" fill="url(#paint7_linear_114_1254)"/>
<path d="M14.9617 17.8462C14.9617 24.5324 18.066 29.729 27.8964 28.2798C31.0432 26.6607 33.2864 23.3824 34.8368 18.3573L35.7422 15.4185C34.8793 14.3105 34.5356 13.0766 34.5356 11.7551C34.5356 10.3496 35.053 9.07185 35.9159 8.13544C34.6224 9.49893 33.5451 11.4995 32.6822 14.3105L31.6899 17.5469C29.9216 23.2546 27.1203 25.9799 22.765 25.9799C17.9792 25.9799 14.9617 22.7015 14.9617 17.8462Z" fill="url(#paint8_linear_114_1254)"/>
<defs>
<linearGradient id="paint0_linear_114_1254" x1="2.0701" y1="1.12489" x2="2.0701" y2="9.55751" gradientUnits="userSpaceOnUse">
<stop stop-color="#FFC708"/>
<stop offset="0.9997" stop-color="#F05731"/>
<stop offset="1" stop-color="#F05731"/>
</linearGradient>
<linearGradient id="paint1_linear_114_1254" x1="6.76239" y1="7.60478" x2="4.58304" y2="23.5672" gradientUnits="userSpaceOnUse">
<stop stop-color="#F80000"/>
<stop offset="1" stop-color="#EE3984"/>
</linearGradient>
<linearGradient id="paint2_linear_114_1254" x1="3.66293" y1="26.4794" x2="15.3239" y2="22.7337" gradientUnits="userSpaceOnUse">
<stop stop-color="#EE3984"/>
<stop offset="0.9997" stop-color="#7800DA"/>
<stop offset="1" stop-color="#7800DA"/>
</linearGradient>
<linearGradient id="paint3_linear_114_1254" x1="19.5501" y1="12.0319" x2="23.7247" y2="26.9343" gradientUnits="userSpaceOnUse">
<stop stop-color="#FF0000"/>
<stop offset="0.9994" stop-color="#EE3984"/>
<stop offset="1" stop-color="#EE3984"/>
</linearGradient>
<linearGradient id="paint4_linear_114_1254" x1="10.8221" y1="12.0749" x2="29.6628" y2="12.0749" gradientUnits="userSpaceOnUse">
<stop stop-color="#FFC708"/>
<stop offset="1" stop-color="#FA3B00"/>
</linearGradient>
<linearGradient id="paint5_linear_114_1254" x1="34.5348" y1="17.5902" x2="47.5551" y2="17.5902" gradientUnits="userSpaceOnUse">
<stop stop-color="#FF0000"/>
<stop offset="1" stop-color="#EE3984"/>
</linearGradient>
<linearGradient id="paint6_linear_114_1254" x1="45.0376" y1="23.7982" x2="33.5935" y2="26.8648" gradientUnits="userSpaceOnUse">
<stop stop-color="#EE3984"/>
<stop offset="1" stop-color="#7800DA"/>
</linearGradient>
<linearGradient id="paint7_linear_114_1254" x1="35.9575" y1="10.414" x2="46.9084" y2="10.414" gradientUnits="userSpaceOnUse">
<stop stop-color="#FFC708"/>
<stop offset="1" stop-color="#F05731"/>
</linearGradient>
<linearGradient id="paint8_linear_114_1254" x1="21.6025" y1="24.2435" x2="29.4401" y2="11.2806" gradientUnits="userSpaceOnUse">
<stop stop-color="#EE3984"/>
<stop offset="1" stop-color="#7800DA"/>
</linearGradient>
</defs>
</svg>
