<svg width="126" height="30" viewBox="0 0 126 30" fill="none" xmlns="http://www.w3.org/2000/svg">
<path d="M55.4129 12.8511H57.6891V8.83973H59.3039V7.21838H53.7981V8.83973H55.4129V12.8511Z" fill="#111827"/>
<path d="M60.9821 12.8511L62.1423 9.48267L63.3008 12.8511H65.5275L63.345 7.21838H60.9378L58.7571 12.8511H60.9821Z" fill="#111827"/>
<path d="M66.5957 12.8511H68.872V8.83973H70.4868V7.21838H64.981V8.83973H66.5957V12.8511Z" fill="#111827"/>
<path d="M72.1652 12.8511L73.3254 9.48267L74.4839 12.8511H76.7106L74.5299 7.21838H72.1209L69.9402 12.8511H72.1652Z" fill="#111827"/>
<path d="M94.01 16.8783C94.2912 17.516 94.6627 18.2061 95.0323 18.8211L96.5215 21.2985H97.6004V15.6658H96.6365V17.6313C96.6365 18.4926 96.6559 19.2177 96.7302 19.9655L96.7108 19.9707C96.4472 19.3592 96.1165 18.704 95.7398 18.0838L94.2665 15.6658H93.0762V21.2985H94.0383V19.2841C94.0383 18.3599 94.0242 17.6156 93.9835 16.8835L94.01 16.8783Z" fill="#111827"/>
<path d="M88.84 19.7069H90.6512L91.1676 21.2985H92.2854L90.4336 15.6658H89.1089L87.2783 21.2985H88.3554L88.84 19.7069ZM89.4502 17.5387C89.551 17.2033 89.6377 16.8136 89.7208 16.4834H89.7385C89.8252 16.8101 89.9189 17.1945 90.0268 17.5422L90.4761 18.9312H89.0063L89.4502 17.5387Z" fill="#111827"/>
<path d="M71.8646 20.5351C71.334 20.5351 70.8229 20.3673 70.4868 20.1752L70.2551 21.0278C70.5664 21.2165 71.1925 21.3877 71.7956 21.3877C73.2672 21.3877 73.9587 20.6015 73.9587 19.6947C73.9587 18.8858 73.4829 18.3931 72.4925 18.0209C71.732 17.7344 71.4012 17.53 71.4012 17.0985C71.4012 16.7665 71.6824 16.4206 72.3439 16.4206C72.8798 16.4206 73.2778 16.5813 73.4829 16.6879L73.7323 15.858C73.4352 15.7095 72.9824 15.5802 72.3651 15.5802C71.1288 15.5802 70.3471 16.2756 70.3471 17.198C70.3471 18.0052 70.9484 18.5049 71.8911 18.8351C72.611 19.0937 72.901 19.3453 72.901 19.7698C72.901 20.2276 72.5279 20.5351 71.8646 20.5351Z" fill="#111827"/>
<path d="M56.8945 16.4276C57.3597 16.4276 57.7399 16.5289 58.0052 16.6477L58.2316 15.8283C58.0194 15.7148 57.5366 15.5785 56.8503 15.5785C55.1082 15.5785 53.7976 16.6967 53.7976 18.5486C53.7976 20.2626 54.8995 21.3877 56.7088 21.3877C57.3986 21.3877 57.9416 21.2532 58.1874 21.1309L58.0159 20.3202C57.7417 20.4425 57.3013 20.5246 56.8786 20.5246C55.6246 20.5246 54.8942 19.7384 54.8942 18.4962C54.8942 17.1439 55.7307 16.4276 56.8945 16.4276Z" fill="#111827"/>
<path d="M86.0086 21.2985V16.5306H87.6517V15.6658H83.3379V16.5306H84.9668V21.2985H86.0086Z" fill="#111827"/>
<path d="M106.826 15.6658L106.139 17.1089C105.945 17.5177 105.787 17.8672 105.646 18.2271H105.628C105.473 17.8462 105.324 17.5247 105.131 17.1107L104.452 15.6658H103.26L105.064 18.9539V21.2985H106.106V18.9259L108 15.6675H106.826V15.6658Z" fill="#111827"/>
<path d="M61.2508 15.575C59.6413 15.575 58.5359 16.7962 58.5359 18.5259C58.5359 20.1752 59.5546 21.3929 61.1677 21.3929H61.1765C62.7382 21.3929 63.8967 20.3132 63.8967 18.4263C63.8932 16.8154 62.9133 15.575 61.2508 15.575ZM61.2101 20.5683H61.2013C60.2055 20.5683 59.6236 19.6213 59.6272 18.5014C59.6254 17.378 60.1737 16.3979 61.2136 16.3979C62.2536 16.3979 62.7877 17.4025 62.7877 18.4647C62.786 19.6423 62.2165 20.5683 61.2101 20.5683Z" fill="#111827"/>
<path d="M101.594 16.4276C102.059 16.4276 102.439 16.5289 102.705 16.6477L102.931 15.8283C102.719 15.7148 102.236 15.5785 101.55 15.5785C99.8076 15.5785 98.4971 16.6967 98.4971 18.5486C98.4971 20.2626 99.5989 21.3877 101.408 21.3877C102.098 21.3877 102.641 21.2549 102.887 21.1309L102.715 20.3202C102.441 20.4425 102.001 20.5246 101.578 20.5246C100.324 20.5246 99.5936 19.7384 99.5936 18.4962C99.5936 17.1439 100.43 16.4276 101.594 16.4276Z" fill="#111827"/>
<path d="M81.571 15.6658H80.5293V21.2985H83.9163V20.4355H81.571V15.6658Z" fill="#111827"/>
<path d="M79.3441 18.884V15.6675H78.3024V18.9521C78.3024 20.0563 77.8514 20.5647 77.1014 20.5647C76.3958 20.5647 75.9324 20.0528 75.9324 18.9521V15.6675H74.8906V18.8909C74.8906 20.6625 75.7484 21.3946 77.0625 21.3946C78.4403 21.3928 79.3441 20.6189 79.3441 18.884Z" fill="#111827"/>
<path d="M69.3106 15.6658H68.3467V17.6313C68.3467 18.4926 68.3661 19.2177 68.4404 19.9655L68.421 19.9707C68.1574 19.3592 67.8267 18.704 67.45 18.0838L65.9767 15.6658H64.7864V21.2985H65.7503V19.2841C65.7503 18.3599 65.7361 17.6156 65.6955 16.8853L65.722 16.88C66.0032 17.5177 66.3746 18.2079 66.7443 18.8228L68.2335 21.3003H69.3124V15.6658H69.3106Z" fill="#111827"/>
<path d="M73.7676 24.115H72.7258V29.7478H73.7676V24.115Z" fill="#111827"/>
<path d="M65.5645 27.1061V27.0834C66.0968 26.8964 66.5921 26.4072 66.5921 25.6874C66.5921 25.2087 66.4152 24.8208 66.1057 24.5658C65.7236 24.2513 65.0657 24.115 64.36 24.115C63.6543 24.115 63.1874 24.1639 62.793 24.2355V29.7478H63.8188V27.4503H64.3388C64.926 27.4643 65.1948 27.7001 65.3575 28.4287C65.5149 29.124 65.6511 29.5853 65.7378 29.7478H66.799C66.6858 29.5294 66.5319 28.8882 66.3533 28.1893C66.2118 27.646 65.9748 27.2598 65.5645 27.1061ZM64.4307 26.7008H63.8188V24.9344C63.9231 24.9082 64.1336 24.8837 64.4608 24.8837C65.1294 24.8855 65.5627 25.1703 65.5627 25.78C65.5627 26.3356 65.1311 26.7008 64.4307 26.7008Z" fill="#111827"/>
<path d="M70.172 26.6902C69.9509 27.3733 69.7439 28.0617 69.5918 28.7256H69.5742C69.4256 28.0442 69.231 27.3855 69.0153 26.6745L68.237 24.1132H67.1016L68.9463 29.7459H70.1401L72.1104 24.1132H71.0015L70.172 26.6902Z" fill="#111827"/>
<path d="M80.9748 27.2476H83.1238V26.409H80.9748V24.9606H83.2511V24.115H79.9331V29.746H83.3767V28.9004H80.9748V27.2476Z" fill="#111827"/>
<path d="M77.7595 24.875C78.2247 24.875 78.6049 24.9763 78.8702 25.0951L79.0966 24.2757C78.8844 24.1622 78.4015 24.0259 77.7153 24.0259C75.9732 24.0259 74.6626 25.144 74.6626 26.996C74.6626 28.7099 75.7645 29.8351 77.5738 29.8351C78.2636 29.8351 78.8066 29.7023 79.0524 29.5783L78.8809 28.7676C78.6049 28.8899 78.1663 28.972 77.7436 28.972C76.4896 28.972 75.7592 28.1858 75.7592 26.9436C75.7592 25.5913 76.5957 24.875 77.7595 24.875Z" fill="#111827"/>
<path d="M56.035 26.4683C55.2727 26.1818 54.9438 25.9774 54.9438 25.5458C54.9438 25.2139 55.225 24.868 55.8847 24.868C56.4206 24.868 56.8185 25.0287 57.0237 25.1353L57.2731 24.3054C56.9759 24.1569 56.5232 24.0276 55.9059 24.0276C54.6696 24.0276 53.8879 24.7229 53.8879 25.6454C53.8879 26.4526 54.4892 26.9523 55.4319 27.2825C56.1518 27.5411 56.4418 27.7927 56.4418 28.2172C56.4418 28.6785 56.0704 28.986 55.4054 28.986C54.8748 28.986 54.3636 28.8182 54.0276 28.6261L53.7959 29.4787C54.1072 29.6673 54.7333 29.8386 55.3364 29.8386C56.8079 29.8386 57.4995 29.0524 57.4995 28.1456C57.5012 27.3332 57.0255 26.8405 56.035 26.4683Z" fill="#111827"/>
<path d="M59.4785 27.2476H61.6274V26.409H59.4785V24.9606H61.7565V24.115H58.4368V29.746H61.8821V28.9004H59.4785V27.2476Z" fill="#111827"/>
<path d="M86.2775 26.4683C85.5169 26.1818 85.1862 25.9774 85.1862 25.5458C85.1862 25.2139 85.4674 24.868 86.1271 24.868C86.663 24.868 87.061 25.0287 87.2661 25.1353L87.5155 24.3054C87.2184 24.1569 86.7656 24.0276 86.1483 24.0276C84.912 24.0276 84.1303 24.7229 84.1303 25.6454C84.1303 26.4526 84.7316 26.9523 85.6743 27.2825C86.3942 27.5411 86.6842 27.7927 86.6842 28.2172C86.6842 28.6785 86.3128 28.986 85.6478 28.986C85.1172 28.986 84.6061 28.8182 84.27 28.6261L84.0383 29.4787C84.3496 29.6673 84.9757 29.8386 85.5788 29.8386C87.0504 29.8386 87.7419 29.0524 87.7419 28.1456C87.7437 27.3332 87.2679 26.8405 86.2775 26.4683Z" fill="#111827"/>
<path d="M0 11.0366C0 8.48118 1.68151 6.94791 4.1391 6.94791V2.60364C4.1391 1.32591 3.2762 0.473511 2.06955 0.473511C0.862903 0.473511 0 1.32591 0 2.60364V11.0366Z" fill="url(#paint0_linear_248_2939)"/>
<path d="M7.33025 29.9032C8.36502 29.9032 9.31297 29.7334 10.1759 29.4341C5.82061 30.1588 4.1391 27.22 4.1391 23.8979V10.27H9.18363C10.3477 10.27 11.1238 9.5891 11.1238 8.60892C11.1238 7.62875 10.3477 6.94788 9.18363 6.94788H4.1391C1.68151 6.94788 0 8.48115 0 11.0366V22.7479C0 27.4335 2.71628 29.9032 7.33025 29.9032Z" fill="url(#paint1_linear_248_2939)"/>
<path d="M10.1759 29.4342C11.9 28.7953 13.2377 27.6034 14.0989 25.8566L12.1587 22.4067C11.2958 24.9622 9.7879 26.3256 7.71835 26.3256C5.56198 26.3256 4.13916 25.0899 4.13916 22.2789V23.898C4.13916 27.2201 5.82067 30.1588 10.1759 29.4342Z" fill="url(#paint2_linear_248_2939)"/>
<path d="M27.8946 28.7533C18.0643 30.2008 14.96 25.0058 14.96 18.3197C14.96 13.4643 17.9775 10.1422 22.3327 10.1422C23.9274 10.1422 25.2652 10.4835 26.4718 11.0366C27.0317 11.2922 27.5066 11.3779 27.9372 11.3779C28.9719 11.3779 29.6612 10.6971 29.6612 9.67487C29.6612 9.03601 29.2732 8.39714 28.3677 7.97182C26.7288 7.16317 24.6167 6.69409 22.331 6.69409C15.5181 6.69409 10.8191 11.4637 10.8191 18.4054C10.8191 25.2194 15.3462 29.947 22.6322 29.947C24.6185 29.9452 26.3425 29.5619 27.8946 28.7533Z" fill="url(#paint3_linear_248_2939)"/>
<path d="M10.8225 18.4037C10.8225 11.462 15.5215 6.69238 22.3344 6.69238C24.6201 6.69238 26.7322 7.16147 28.3712 7.97011C29.2766 8.39544 29.6646 9.0343 29.6646 9.67316C29.6646 10.6953 28.9754 11.3762 27.9406 11.3762C27.51 11.3762 27.0352 11.2905 26.4753 11.0349C25.0099 10.354 23.5871 10.1405 22.3362 10.1405C16.3401 10.1422 10.8225 13.8897 10.8225 18.4037Z" fill="url(#paint4_linear_248_2939)"/>
<path d="M36.5608 8.05591C36.1727 8.43923 35.9566 8.90831 35.9566 9.46141C35.9566 10.8669 37.2926 12.9533 40.3969 15.0834L43.9318 17.5111C46.5187 19.2999 47.5535 21.003 47.5535 23.5584C47.5535 25.3892 46.8199 26.9663 45.6133 28.0725C46.0439 27.6891 46.3025 27.1781 46.3025 26.4972C46.3025 25.0059 44.7929 22.664 41.5592 20.4499L38.3256 18.2357C35.6093 16.3611 34.532 14.6161 34.532 12.2304C34.532 10.8249 35.0494 9.54717 35.9123 8.61076C36.1302 8.39547 36.3446 8.22569 36.5608 8.05591Z" fill="url(#paint5_linear_248_2939)"/>
<path d="M33.7595 27.178C33.7595 27.8589 34.105 28.4137 35.0105 28.8391C36.2614 29.4359 38.2867 29.947 40.0975 29.947C42.3832 29.947 44.2791 29.2661 45.6169 28.0724C46.0475 27.6891 46.3062 27.178 46.3062 26.4972C46.3062 25.0059 44.7965 22.664 41.5629 20.4498C43.0282 21.472 43.6324 22.3244 43.6324 23.5584C43.6324 25.3892 42.1671 26.6249 40.0532 26.6249C38.0262 26.6249 36.3022 25.6027 35.3542 25.6027C34.4063 25.6027 33.7595 26.2416 33.7595 27.178Z" fill="url(#paint6_linear_248_2939)"/>
<path d="M40.3986 15.0833C39.0183 14.1032 38.4159 13.2087 38.4159 12.1446C38.4159 10.7811 39.5375 9.93042 41.1322 9.93042C43.1592 9.93042 44.1072 10.8668 45.3138 10.8668C46.2618 10.8668 46.9085 10.228 46.9085 9.29155C46.9085 8.61068 46.563 8.05583 45.6576 7.63051C44.2347 6.94964 42.6826 6.69409 41.0011 6.69409C39.2327 6.69409 37.6806 7.20518 36.5607 8.05758C36.1727 8.4409 35.9565 8.90999 35.9565 9.46308C35.9565 10.8668 37.2943 12.9532 40.3986 15.0833Z" fill="url(#paint7_linear_248_2939)"/>
<path d="M14.9617 18.3197C14.9617 25.0059 18.066 30.2026 27.8964 28.7533C31.0432 27.1343 33.2864 23.856 34.8368 18.8308L35.7422 15.8921C34.8793 14.7841 34.5356 13.5501 34.5356 12.2287C34.5356 10.8232 35.053 9.54543 35.9159 8.60901C34.6224 9.9725 33.5451 11.9731 32.6822 14.7841L31.6899 18.0204C29.9216 23.7282 27.1203 26.4534 22.765 26.4534C17.9792 26.4534 14.9617 23.1751 14.9617 18.3197Z" fill="url(#paint8_linear_248_2939)"/>
<defs>
<linearGradient id="paint0_linear_248_2939" x1="2.0701" y1="1.5984" x2="2.0701" y2="10.031" gradientUnits="userSpaceOnUse">
<stop stop-color="#FFC708"/>
<stop offset="0.9997" stop-color="#F05731"/>
<stop offset="1" stop-color="#F05731"/>
</linearGradient>
<linearGradient id="paint1_linear_248_2939" x1="6.76239" y1="8.07826" x2="4.58304" y2="24.0407" gradientUnits="userSpaceOnUse">
<stop stop-color="#F80000"/>
<stop offset="1" stop-color="#EE3984"/>
</linearGradient>
<linearGradient id="paint2_linear_248_2939" x1="3.66293" y1="26.953" x2="15.3239" y2="23.2073" gradientUnits="userSpaceOnUse">
<stop stop-color="#EE3984"/>
<stop offset="0.9997" stop-color="#7800DA"/>
<stop offset="1" stop-color="#7800DA"/>
</linearGradient>
<linearGradient id="paint3_linear_248_2939" x1="19.5501" y1="12.5054" x2="23.7247" y2="27.4078" gradientUnits="userSpaceOnUse">
<stop stop-color="#FF0000"/>
<stop offset="0.9994" stop-color="#EE3984"/>
<stop offset="1" stop-color="#EE3984"/>
</linearGradient>
<linearGradient id="paint4_linear_248_2939" x1="10.8221" y1="12.5485" x2="29.6628" y2="12.5485" gradientUnits="userSpaceOnUse">
<stop stop-color="#FFC708"/>
<stop offset="1" stop-color="#FA3B00"/>
</linearGradient>
<linearGradient id="paint5_linear_248_2939" x1="34.5347" y1="18.0638" x2="47.555" y2="18.0638" gradientUnits="userSpaceOnUse">
<stop stop-color="#FF0000"/>
<stop offset="1" stop-color="#EE3984"/>
</linearGradient>
<linearGradient id="paint6_linear_248_2939" x1="45.0376" y1="24.2717" x2="33.5935" y2="27.3383" gradientUnits="userSpaceOnUse">
<stop stop-color="#EE3984"/>
<stop offset="1" stop-color="#7800DA"/>
</linearGradient>
<linearGradient id="paint7_linear_248_2939" x1="35.9574" y1="10.8875" x2="46.9083" y2="10.8875" gradientUnits="userSpaceOnUse">
<stop stop-color="#FFC708"/>
<stop offset="1" stop-color="#F05731"/>
</linearGradient>
<linearGradient id="paint8_linear_248_2939" x1="21.6025" y1="24.717" x2="29.4401" y2="11.7542" gradientUnits="userSpaceOnUse">
<stop stop-color="#EE3984"/>
<stop offset="1" stop-color="#7800DA"/>
</linearGradient>
</defs>
</svg>
